<?xml version="1.0" encoding="UTF-8" standalone="no"?>
<!-- Created with Inkscape (http://www.inkscape.org/) -->
<svg xmlns:dc="http://purl.org/dc/elements/1.1/" xmlns:cc="http://creativecommons.org/ns#" xmlns:rdf="http://www.w3.org/1999/02/22-rdf-syntax-ns#" xmlns:svg="http://www.w3.org/2000/svg" xmlns="http://www.w3.org/2000/svg" xmlns:sodipodi="http://sodipodi.sourceforge.net/DTD/sodipodi-0.dtd" xmlns:inkscape="http://www.inkscape.org/namespaces/inkscape" width="1176.9128" height="261.47321" id="svg2" version="1.1" inkscape:version="0.48.4 r9939" sodipodi:docname="Watchmen.svg">
  <defs id="defs4"/>
  <sodipodi:namedview id="base" pagecolor="#000000" bordercolor="#666666" borderopacity="1.0" inkscape:pageopacity="1" inkscape:pageshadow="2" inkscape:zoom="0.98994949" inkscape:cx="562.15719" inkscape:cy="62.483332" inkscape:document-units="px" inkscape:current-layer="layer1" showgrid="false" fit-margin-top="10" fit-margin-left="15" fit-margin-right="15" fit-margin-bottom="10" inkscape:snap-object-midpoints="true" inkscape:snap-center="true" inkscape:snap-midpoints="true" inkscape:snap-smooth-nodes="true" inkscape:object-nodes="true" inkscape:object-paths="true" inkscape:snap-bbox="true" inkscape:bbox-paths="true" inkscape:bbox-nodes="true" inkscape:snap-bbox-edge-midpoints="true" inkscape:snap-bbox-midpoints="true" inkscape:snap-global="true" inkscape:window-width="1920" inkscape:window-height="1018" inkscape:window-x="1912" inkscape:window-y="-8" inkscape:window-maximized="1" inkscape:snap-page="true"/>
  <metadata id="metadata7">
    <rdf:RDF>
      <cc:Work rdf:about="">
        <dc:format>image/svg+xml</dc:format>
        <dc:type rdf:resource="http://purl.org/dc/dcmitype/StillImage"/>
      </cc:Work>
    </rdf:RDF>
  </metadata>
  <g inkscape:label="Layer 1" inkscape:groupmode="layer" id="layer1" transform="translate(-14.700893,-19.665777)" style="display:inline">
    <rect style="color:#000000;fill:#000000;fill-opacity:1;fill-rule:nonzero;stroke:none;stroke-width:1;marker:none;visibility:visible;display:inline;overflow:visible;enable-background:accumulate" id="rect4035" width="1176.9128" height="261.47321" x="14.700893" y="19.665777"/>
    <path style="fill:#ffff00;stroke:none" d="m 1169.7566,262.74746 -55.0533,0.0126 -29.2944,-98.20167 0,98.20835 -54.8008,0 0,-229.052405 61.094,0 27.4207,104.201275 0,-104.201275 50.6338,0 0,229.033175" id="path3793" inkscape:connector-curvature="0" transform="translate(6.8571429,4.0764685)" sodipodi:nodetypes="ccccccccccc"/>
    <path style="fill:#ffff00;stroke:none" d="m 922.40625,33.71875 0,229.09375 102.65625,-0.0312 0,-54.28125 -43.4375,0 0,-33.09375 38.75,0 0,-57.75 -38.78125,0 0,-31.34375 43.46875,0 0,-52.59375 -102.65625,0 z" transform="translate(6.8571429,4.0764685)" id="path3795" inkscape:connector-curvature="0"/>
    <path style="fill:#ffff00;fill-opacity:1;stroke:none" d="m 731.78125,33.71875 -12,229.0625 50.8125,0.0312 5.46875,-136.59375 20.1875,136.59375 0,0.0312 43.9375,-0.0312 20.15625,-136.59375 5.46875,136.59375 50.84375,0 -12,-229.09375 -71.96875,0 -13.75,118.75 -0.71875,3.5 -0.71875,-3.5 -13.75,-118.75 -71.96875,0 z" transform="translate(6.8571429,4.0764685)" id="path3839" inkscape:connector-curvature="0"/>
    <path style="fill:#ffff00;fill-opacity:1;stroke:none" d="m 577.5,33.71875 0,229.15625 56.78125,0 0,-88.09375 24.0625,0 0,88.09375 56.78125,0 0,-229.15625 -56.78125,0 0,80.09375 -24.0625,0 0,-80.09375 -56.78125,0 z" transform="translate(6.8571429,4.0764685)" id="path3860" inkscape:connector-curvature="0"/>
    <path style="color:#000000;fill:#ffff00;fill-opacity:1;stroke:none;stroke-width:1.46166539;marker:none;visibility:visible;display:inline;overflow:visible;enable-background:accumulate" d="m 538.125,25.59375 c -34.22102,0.403613 -81,36.27415 -81,120.90625 0,92.84638 52.68727,120.5625 81.34375,120.5625 9.85765,0 21.0462,-2.69728 31.875,-8.875 l 0,-55.71875 c -4.90106,4.11871 -12.56231,6.4375 -24.46875,6.4375 -17.465,0 -31.625,-18.61405 -31.625,-63.03125 0,-40.88167 14.16,-63.0625 31.625,-63.0625 12.10455,0 19.71168,3.082045 24.46875,8.40625 l 0,-56.875 c -9.64503,-5.77195 -20.45386,-8.888759 -32.21875,-8.75 z" transform="translate(6.8571429,4.0764685)" id="path3905" inkscape:connector-curvature="0"/>
    <path style="color:#000000;fill:#ffff00;fill-opacity:1;stroke:none;stroke-width:1;marker:none;visibility:visible;display:inline;overflow:visible;enable-background:accumulate" d="m 339.65625,33.71875 0,53.21875 32.84375,0 0,176 56.5,0 0,-176 32.84375,0 0,-53.21875 -32.84375,0 -56.5,0 -32.84375,0 z" transform="translate(6.8571429,4.0764685)" id="rect3932" inkscape:connector-curvature="0"/>
    <path style="fill:#ffff00;stroke:none" d="m 259.34375,33.71875 -46.40625,229.25 56.71875,-0.0312 4.03125,-31 31.3125,0 3.5625,31 54.65625,0 -40,-229.21875 -63.875,0 z m 31,70.71875 9.125,79.28125 -19.46875,0 10.34375,-79.28125 z" transform="translate(6.8571429,4.0764685)" id="path4007" inkscape:connector-curvature="0"/>
    <path style="fill:#ffff00;stroke:none" d="M 22.84375,33.71875 61.875,263 112.5,263 131.75,129.65625 151,263 l 50.625,0 43.03125,-229.28125 -57.9375,0 -14.28125,111.4375 -15.28125,-111.4375 -46.8125,0 -19.28125,111.4375 -14.28125,-111.4375 -53.9375,0 z" transform="translate(6.8571429,4.0764685)" id="path4012" inkscape:connector-curvature="0"/>
  </g>
</svg>